<svg xmlns="http://www.w3.org/2000/svg" width="15" height="15" viewBox="0 0 344.88 344.38"><defs><style>.cls-1{fill:#fff;}</style></defs><g id="Layer_2" data-name="Layer 2"><g id="Layer_1-2" data-name="Layer 1"><path class="cls-1" d="M76.71,88.35C75.86,42.45,113.35.29,164.79,0c48.59-.27,88.3,39.68,88.29,88.32,0,46.69-36.75,88.22-88.28,88.29C112.63,176.69,75.88,133.63,76.71,88.35Z"/><path class="cls-1" d="M106.84,328.72q-37,0-74.08,0c-5,0-10-.17-14.69-2.15-9-3.8-15.25-10.47-16.68-20.11a119.19,119.19,0,0,1,.26-38c3.08-17.54,13.79-30.39,27.38-41,17.16-13.45,36.9-21.65,57.68-27.53a284.75,284.75,0,0,1,63.67-10c11.49-.58,22.91-.24,34.36.22,1.2.05,2.82-.33,3.35,1s-.9,2.18-1.69,3.08c-15.24,17.4-23.65,37.54-24.83,60.72-1.36,26.53,6.79,49.77,23.77,70.05.74.89,2.37,1.62,1.64,3s-2.26.76-3.45.76Q145.18,328.73,106.84,328.72Z"/><path class="cls-1" d="M176.3,260A84.29,84.29,0,0,1,344.88,260c.05,47.18-37.13,84.49-84.43,84.41C212,344.3,176.27,305,176.3,260Zm76.31,31.27c3.8.19,6.65-1.61,9.22-4.2,8.43-8.49,16.92-16.94,25.38-25.41,4.49-4.49,9.12-8.87,13.45-13.53,6.28-6.77,3.28-17-5.58-19.16-4.56-1.14-8.29.6-11.49,3.79-10,10-20,19.88-29.85,29.93-2,2-3.46,2.18-5.73.54-4.14-3-8.47-5.72-12.74-8.53a11,11,0,0,0-9.25-1.79,11.14,11.14,0,0,0-8.61,8.91,10.43,10.43,0,0,0,4.32,11.22c8.26,5.79,16.74,11.29,25.14,16.89A10.35,10.35,0,0,0,252.61,291.3Z"/></g></g></svg>