<svg xmlns="http://www.w3.org/2000/svg" width="10" height="10" viewBox="0 0 104 118.86"><defs><style>.cls-1{fill:#fff;}</style></defs><g id="Layer_2" data-name="Layer 2"><g id="Layer_1-2" data-name="Layer 1"><path class="cls-1" d="M18.57,24.14A5.57,5.57,0,1,0,13,18.57,5.55,5.55,0,0,0,18.57,24.14Zm18.57-5.57A18.54,18.54,0,0,1,26,35.59v9A7.42,7.42,0,0,0,33.43,52H70.57A7.42,7.42,0,0,0,78,44.57v-9a18.57,18.57,0,1,1,14.86,0v9A22.29,22.29,0,0,1,70.57,66.86H59.43V83.27a18.57,18.57,0,1,1-14.86,0V66.86H33.43A22.29,22.29,0,0,1,11.14,44.57v-9a18.57,18.57,0,1,1,26-17Zm48.29,5.57a5.57,5.57,0,1,0-5.57-5.57A5.55,5.55,0,0,0,85.43,24.14ZM57.57,100.29A5.57,5.57,0,1,0,52,105.86,5.56,5.56,0,0,0,57.57,100.29Z"/></g></g></svg>