<svg xmlns="http://www.w3.org/2000/svg" viewBox="0 0 297.86 68.07"><defs><style>.cls-1{fill:#fff;}</style></defs><g id="Layer_2" data-name="Layer 2"><g id="Layer_1-2" data-name="Layer 1"><path class="cls-1" d="M23.35,54.81c0,.29-.32.51-.73.51s-.79-.18-.79-.51.33-.5.73-.5S23.35,54.49,23.35,54.81ZM19,54.18c-.09.28.19.61.61.69a.66.66,0,0,0,.87-.28c.09-.28-.18-.61-.6-.73a.73.73,0,0,0-.88.32Zm6.23-.24c-.41.1-.69.37-.65.69s.41.47.83.37.69-.37.65-.65S25.6,53.9,25.2,53.94ZM34.46,0C14.94,0,0,14.82,0,34.35A35.3,35.3,0,0,0,23.86,68c1.8.32,2.43-.79,2.43-1.71s0-5.68,0-8.64c0,0-9.85,2.11-11.92-4.19,0,0-1.6-4.1-3.91-5.16,0,0-3.23-2.21.22-2.16a7.44,7.44,0,0,1,5.44,3.63c3.08,5.43,8.24,3.87,10.26,2.94A7.82,7.82,0,0,1,28.59,48c-7.87-.88-15.81-2-15.81-15.56a10.68,10.68,0,0,1,3.32-8.29,13.34,13.34,0,0,1,.37-9.56c2.94-.91,9.71,3.8,9.71,3.8a33.43,33.43,0,0,1,17.68,0s6.77-4.73,9.71-3.8a13.27,13.27,0,0,1,.37,9.56c2.25,2.49,3.63,4.44,3.63,8.29C57.57,46,49.28,47.1,41.41,48c1.3,1.11,2.4,3.22,2.4,6.53,0,4.74-.05,10.61-.05,11.77,0,.91.65,2,2.44,1.7,14.08-4.67,23.62-18,23.62-33.64C69.82,14.82,54,0,34.46,0ZM13.68,48.55c-.18.14-.14.46.1.73s.55.33.73.14.14-.46-.1-.73S13.87,48.37,13.68,48.55Zm-1.52-1.14c-.1.18,0,.41.33.55a.41.41,0,0,0,.6-.1c.1-.18,0-.41-.32-.55S12.26,47.27,12.16,47.41Zm4.56,5c-.22.18-.14.61.19.87s.73.37.91.14.1-.6-.18-.87S16.91,52.2,16.72,52.42Zm-1.6-2.07c-.23.14-.23.51,0,.83s.6.47.79.33a.66.66,0,0,0,0-.88c-.2-.32-.57-.46-.79-.28Z"/><path class="cls-1" d="M104.91,39.13A5.59,5.59,0,0,0,104,42c0,1.63.85,2.55,3.61,2.55h12.16c7.7,0,11.16,3.18,11.16,8.27,0,6.5-6.29,11.87-20.07,11.87-10.67,0-16.26-3.18-16.26-7.28,0-3.32,3.47-5,7.64-5.51-2.9-.64-5.16-2.19-5.16-5.23,0-3.53,3.11-6.43,6.43-8.27A11.6,11.6,0,0,1,97.77,28.1c0-7.49,6.08-12.65,15.13-12.65a21.39,21.39,0,0,1,5.73.77l1.55-8.34,9,3-6.72,7A11.74,11.74,0,0,1,128.1,28.1c0,7.49-6.15,12.65-15.2,12.65A18.73,18.73,0,0,1,104.91,39.13ZM122.23,54c0-1.55-1.27-2-4-2H103.64a3.29,3.29,0,0,0-.92,2c0,2.26,2.48,3.61,9,3.61C118.7,57.58,122.23,56.23,122.23,54Zm-3.6-25.87c0-3.89-2.48-5.87-5.73-5.87s-5.73,2-5.73,5.87S109.72,34,112.9,34,118.63,32,118.63,28.1Z"/><path class="cls-1" d="M133.32,12.05V3.43h10.11v8.62Zm0,38.74V16.15h10.11V50.79Z"/><path class="cls-1" d="M151.28,40.54V23.86h-5.16V16.15h5.16v-4.1l10.1-5.3v9.4H171v7.71h-9.62V38.7c0,2.83,1.42,3.82,3.4,3.82,2.19,0,4.1-1.77,5.16-3.68l2.9,8.27c-1.49,1.91-5,4.39-10.32,4.39C154.88,51.5,151.28,47,151.28,40.54Z"/><path class="cls-1" d="M175.59,63.94V16.15H185.7V26c1-5.58,3.81-10.6,11-10.6C204.78,15.38,210,22,210,33.47s-5.23,18-13.71,18c-7.21,0-9.68-5-10.6-10.54v23Zm16.68-20.29c4.6,0,7.49-3.6,7.49-10.18s-2.89-10.18-7.49-10.18c-4.24,0-6.57,2.62-6.57,8.27v3.75C185.7,41,188,43.65,192.27,43.65Z"/><path class="cls-1" d="M213.75,50.79V3.43h10.11V50.79Z"/><path class="cls-1" d="M227.61,43.09c0-5.24,3.32-8.27,9.89-10.54l10.61-4c-.36-2.89-1.7-4.52-5.52-4.52A13.44,13.44,0,0,0,231.78,30l-5.09-7.35a22.57,22.57,0,0,1,16.61-7.21c8.76,0,13.85,4.66,13.85,13.36V40.68c0,1.56.57,2,1.84,2H261v8.06H255.1c-3.74,0-7.14-1.7-7.14-6.64V41.81c-1.13,4.53-4.17,9.76-11.23,9.76C231.35,51.57,227.61,48.67,227.61,43.09Zm12.86,1.06c4.81,0,7.49-2.41,7.49-6.65V35.1l-7.35,3c-2.75,1.13-3.67,2.12-3.67,3.46C236.94,43.23,238.07,44.15,240.47,44.15Z"/><path class="cls-1" d="M259.84,58.78l4-8.49c2.19,2.55,4.73,4.32,7.77,4.32,2.69,0,4.24-.92,5.37-4.24l.71-1.84h-6.15L260.33,16.15H271.5l4.95,16.33L279,44.07l2.62-11.59,4.87-16.33h11.38L285.42,52.91c-2.68,7.7-7,10.6-13.5,10.6A17.31,17.31,0,0,1,259.84,58.78Z"/></g></g></svg>