<svg xmlns="http://www.w3.org/2000/svg" width="10" height="10" viewBox="0 0 240.08 120.78"><defs><style>.cls-1{fill:#fff;}</style></defs><g id="Layer_2" data-name="Layer 2"><g id="Layer_1-2" data-name="Layer 1"><path class="cls-1" d="M119.65,120.68c-18.16,0-36.32-.13-54.47.09-4.68.06-6-1.59-5.91-6.06.23-12.32-.05-24.65.15-37,.07-4-1.35-5.16-5.22-5.12-16.15.16-32.31,0-48.47.12-4,0-6.14-.62-5.52-5.47a49.39,49.39,0,0,0,0-13.95c-.82-5,1.39-5.34,5.3-5.31,15.65.14,31.31.06,47,.05,6.89,0,6.9,0,6.91-6.78,0-11.66.12-23.32-.06-35C59.22,2,60.48,0,65.21,0q55,.2,109.94,0c4.29,0,5.94,1.51,5.87,5.84-.18,11.83-.06,23.65-.05,35.48,0,6.72,0,6.73,6.95,6.73,15.33,0,30.65.18,46-.09,4.91-.09,6.5,1.62,6.14,6.33a97.08,97.08,0,0,0,0,13c.25,4.13-1.35,5.5-5.46,5.46-15.82-.17-31.65.1-47.47-.17-4.79-.08-6.35,1.32-6.23,6.18.32,12-.06,24,.19,36,.09,4.51-1.3,6.1-5.94,6C156.62,120.55,138.13,120.68,119.65,120.68Zm29.7-60.11c0-8.32-.13-16.65.05-25,.09-3.61-1.05-5-4.83-5q-24.47.24-48.94,0c-3.89,0-4.74,1.6-4.72,5.09q.2,24.72,0,49.44c0,3.61,1,5,4.83,5q24.47-.24,48.94,0c3.9,0,4.79-1.59,4.72-5.09C149.23,76.89,149.35,68.73,149.35,60.57Z"/></g></g></svg>