<svg xmlns="http://www.w3.org/2000/svg" width="10" height="10" viewBox="0 0 125.7 99.74"><defs><style>.cls-1{fill:#fff;}</style></defs><g id="Layer_2" data-name="Layer 2"><g id="Layer_1-2" data-name="Layer 1"><path class="cls-1" d="M125.7,78.33A10.92,10.92,0,0,1,120.88,85a10.76,10.76,0,0,1-3.18,1.25c-.84.21-1.14-.1-1.11-.91,0-.41,0-.82,0-1.23,0-16.35-.07-32.7,0-49a14.56,14.56,0,0,0-9.7-13.91,16.86,16.86,0,0,0-5.55-.73c-13.54,0-27.07,0-40.6,0a3.3,3.3,0,0,1-2.92-1.34c-2-2.5-4.12-4.86-6.13-7.34a6.6,6.6,0,0,0-5.51-2.63c-10.38.05-20.76,0-31.15,0-1.84,0-1.91-.11-1.37-1.87A10.21,10.21,0,0,1,23.69,0C35.58,0,47.48,0,59.38,0a3,3,0,0,1,2.44,1.16c2.51,3,5.08,6,7.56,9a2.76,2.76,0,0,0,2.4,1.12c13.81,0,27.63.08,41.44-.07,6.16-.06,10.55,2.08,12.48,8.21Z"/><path class="cls-1" d="M56.16,99.73h-45c-4.43,0-7.95-1.66-10.08-5.72A8.78,8.78,0,0,1,0,89.9q0-33.48,0-67A10,10,0,0,1,9.6,13.27c12.27-.08,24.53,0,36.79,0a2.59,2.59,0,0,1,2.11,1c2.57,3.07,5.18,6.11,7.71,9.21a2.62,2.62,0,0,0,2.29,1.05q21.78,0,43.54,0a10.12,10.12,0,0,1,10.3,8.08,11.45,11.45,0,0,1,.19,2.8c0,17.78-.09,35.57.07,53.35a10.66,10.66,0,0,1-11.06,11Q78.86,99.71,56.16,99.73Z"/></g></g></svg>