<svg xmlns="http://www.w3.org/2000/svg" width="10" height="10" viewBox="0 0 168.96 131.4"><defs><style>.cls-1{fill:#fff;}</style></defs><g id="Layer_2" data-name="Layer 2"><g id="Layer_1-2" data-name="Layer 1"><path class="cls-1" d="M84.46,0C60.77,0,41.79,10.79,28,23.64S5.07,51.62.73,62.09a9.32,9.32,0,0,0,0,7.22C5.07,79.78,14.25,95,28,107.76s32.8,23.64,56.49,23.64,42.68-10.79,56.49-23.64a117.07,117.07,0,0,0,27.28-38.45,9.32,9.32,0,0,0,0-7.22A116.77,116.77,0,0,0,141,23.64C127.14,10.79,108.16,0,84.46,0ZM126.7,65.7A42.24,42.24,0,1,1,84.46,23.46,42.25,42.25,0,0,1,126.7,65.7ZM84.46,46.93A18.78,18.78,0,0,1,65.69,65.7a18.44,18.44,0,0,1-9.27-2.46c-.05.82-.11,1.61-.11,2.46A28.16,28.16,0,1,0,84.46,37.54a22.51,22.51,0,0,0-2.46.12A18.65,18.65,0,0,1,84.46,46.93Z"/></g></g></svg>